<svg xmlns="http://www.w3.org/2000/svg" width="120" height="120" viewBox="0 0 120 120" fill="none">
    <path d="M65.9531 26.5831C64.9114 26.2512 63.8335 26.0014 62.7326 25.8371C62.0326 25.7319 61.3227 25.6597 60.603 25.6268C59.1768 25.5578 57.7669 25.6301 56.39 25.8305C55.2858 25.9916 54.2013 26.2413 53.1464 26.5732C52.2919 26.8394 51.4572 27.1615 50.6422 27.5361L56.1796 29.1989C57.2838 28.9919 58.4143 28.8867 59.5613 28.8867C59.857 28.8867 60.1528 28.8933 60.4486 28.9097C61.2964 28.9492 62.1279 29.0477 62.9429 29.2055L68.4442 27.5492C67.639 27.1779 66.8076 26.8525 65.9531 26.5831ZM92.0201 103.293C90.8338 97.8249 84.4321 70.1747 74.6881 62.6493C74.5961 62.5803 74.5731 62.485 74.5666 62.416C74.5633 62.3601 74.5731 62.2484 74.6619 62.1564C78.9078 57.9336 81.1983 52.0743 80.9453 46.0802C80.7875 42.3208 79.6308 38.7914 77.7378 35.7582C77.2383 34.9596 76.6895 34.194 76.0947 33.471C75.5787 32.8466 75.0332 32.2485 74.4515 31.6866V34.1677H72.3023C72.8248 34.6869 73.3145 35.2357 73.768 35.8108C74.1853 36.3366 74.5731 36.8854 74.928 37.4539C76.5416 40.027 77.5275 43.024 77.6623 46.2182C77.8792 51.3677 75.9895 56.2017 72.345 59.8297C71.6089 60.5625 71.2211 61.5813 71.2868 62.623C71.3525 63.6614 71.8586 64.6177 72.6769 65.252C79.5355 70.5461 85.6513 89.4287 88.8061 103.987C88.9376 104.595 88.7963 105.229 88.4184 105.722C88.0404 106.215 87.4653 106.514 86.8442 106.543C82.7002 106.737 75.7595 106.724 67.7212 106.704C65.1184 106.698 62.3875 106.691 59.5711 106.691C56.7515 106.691 54.0205 106.698 51.4178 106.704C43.3795 106.721 36.4388 106.737 32.2947 106.543C31.6736 106.514 31.0985 106.215 30.7206 105.722C30.3427 105.229 30.2014 104.598 30.3328 103.987C33.4942 89.3761 39.6232 70.4606 46.4883 65.2388C47.3033 64.6177 47.8094 63.668 47.8784 62.6394C47.9474 61.601 47.5629 60.5888 46.8268 59.8626C43.3663 56.4351 41.4603 51.8639 41.4603 46.997C41.4603 43.5597 42.4001 40.2866 44.1682 37.4539C44.5198 36.8886 44.9043 36.3399 45.325 35.8108C45.7752 35.239 46.2616 34.6902 46.7874 34.1677H44.6874V31.6241C44.1025 32.1926 43.5536 32.7842 43.0443 33.402C42.4429 34.1282 41.8941 34.8873 41.4011 35.676C39.2979 39.0313 38.174 42.9189 38.174 46.997C38.174 52.7512 40.4251 58.1472 44.5165 62.1991C44.5954 62.278 44.602 62.3733 44.5987 62.4258C44.5954 62.4817 44.5757 62.5639 44.4968 62.623C34.7299 70.0531 28.3084 97.8052 27.1188 103.293C26.7836 104.848 27.1451 106.461 28.1146 107.723C29.084 108.985 30.553 109.751 32.1403 109.826C35.1473 109.968 39.5443 110 44.7433 110C46.8531 110 49.0944 109.994 51.4244 109.991C54.0238 109.984 56.7548 109.977 59.5711 109.977C62.3842 109.977 65.1151 109.984 67.7146 109.991C75.7924 110.007 82.7725 110.023 86.9987 109.826C88.586 109.751 90.0549 108.985 91.0244 107.723C91.9939 106.461 92.3554 104.848 92.0201 103.293Z" fill="white"/>
    <path d="M43.0386 22.749V35.8019H76.089V22.749H43.0386ZM74.4458 34.1588H44.6817V25.7362L50.6365 27.5272L56.174 29.19L59.0922 30.0674C59.2467 30.1134 59.4044 30.1364 59.5654 30.1364C59.7232 30.1364 59.8809 30.1134 60.0354 30.0674L62.9372 29.1966L68.4385 27.5403L74.4458 25.7362V34.1588Z" fill="#FFD323"/>
    <path d="M77.143 21.4928C76.8571 21.2496 76.489 21.105 76.0881 21.105H43.0377C42.6335 21.105 42.2687 21.2496 41.9828 21.4928C41.6213 21.7918 41.3945 22.242 41.3945 22.7481V35.8009C41.3945 36.7112 42.1274 37.444 43.0377 37.444H76.0881C76.9951 37.444 77.7313 36.7112 77.7313 35.8009V22.7481C77.7313 22.242 77.5012 21.7918 77.143 21.4928ZM74.445 24.3912V34.1578H44.6808V24.3912H74.445Z" fill="white"/>
    <path d="M74.4467 25.738V34.1606H44.6826V25.738L50.6374 27.529L56.1748 29.1918L59.0931 30.0693C59.2475 30.1153 59.4053 30.1383 59.5663 30.1383C59.7241 30.1383 59.8818 30.1153 60.0363 30.0693L62.9381 29.1984L68.4394 27.5422L74.4467 25.738Z" fill="#FFD323"/>
    <path d="M59.5664 11.644L32.1553 20.2605L59.5664 28.499L86.9775 20.2605L59.5664 11.644Z" fill="#FFD323"/>
    <path d="M87.4696 18.6929L60.0618 10.0764C59.7397 9.97453 59.3946 9.97453 59.0759 10.0764L31.6615 18.6929C30.9746 18.9098 30.508 19.5506 30.5112 20.2702C30.5178 20.9932 30.991 21.6275 31.6812 21.8345L41.3988 24.7559L44.6851 25.7418L50.6399 27.5328L56.1773 29.1956L59.0956 30.073C59.25 30.119 59.4078 30.142 59.5688 30.142C59.7265 30.142 59.8843 30.119 60.0387 30.073L62.9406 29.2022L68.4418 27.5459L74.4492 25.7418L76.0924 25.2489L77.7355 24.7526L87.4499 21.8345C88.1433 21.6275 88.6165 20.9932 88.6198 20.2702C88.6264 19.5506 88.1597 18.9098 87.4696 18.6929ZM77.1473 21.4993L72.9704 22.7546L67.5052 24.3977L62.7302 25.8338L59.5688 26.7835L56.3877 25.8272L51.6324 24.3977L46.1672 22.7546L41.987 21.4993L37.7477 20.2242L59.5688 13.3659L81.3866 20.2242L77.1473 21.4993Z" fill="white"/>
    <path d="M59.5635 81.8155C58.9489 81.8155 58.387 81.4738 58.1043 80.9283C54.2035 73.4094 49.5041 68.8416 49.458 68.7955C48.8041 68.1679 48.7844 67.1261 49.412 66.4722C50.0397 65.8182 51.0782 65.7952 51.7322 66.4229C51.9162 66.6004 55.7875 70.3466 59.5602 76.7712C63.3361 70.3466 67.2041 66.5971 67.3882 66.4229C68.0421 65.7952 69.0839 65.8182 69.7116 66.4722C70.3393 67.1261 70.3195 68.1646 69.6656 68.7955C69.6196 68.8416 64.9201 73.4061 61.0193 80.9283C60.7399 81.4738 60.1747 81.8155 59.5635 81.8155Z" fill="white"/>
    <path d="M89.0595 41.0268C88.6389 41.0268 88.2182 40.8658 87.8962 40.547C87.2553 39.9062 87.2553 38.8644 87.8962 38.2236L95.7307 30.3893C96.3715 29.7485 97.4133 29.7485 98.0541 30.3893C98.695 31.0301 98.695 32.0718 98.0541 32.7127L90.2196 40.547C89.9008 40.8658 89.4802 41.0268 89.0595 41.0268Z" fill="white"/>
    <path d="M104.492 54.5831H93.752C92.845 54.5831 92.1089 53.847 92.1089 52.94C92.1089 52.033 92.845 51.2969 93.752 51.2969H104.492C105.399 51.2969 106.135 52.033 106.135 52.94C106.135 53.8503 105.402 54.5831 104.492 54.5831Z" fill="white"/>
    <path d="M30.0865 41.0268C29.6658 41.0268 29.2452 40.8658 28.9231 40.547L21.0885 32.7127C20.4477 32.0718 20.4477 31.0301 21.0885 30.3893C21.7294 29.7485 22.7711 29.7485 23.412 30.3893L31.2465 38.2236C31.8873 38.8644 31.8873 39.9062 31.2465 40.547C30.9277 40.8658 30.5071 41.0268 30.0865 41.0268Z" fill="white"/>
    <path d="M25.3828 54.5831H14.6432C13.7361 54.5831 13 53.847 13 52.94C13 52.033 13.7361 51.2969 14.6432 51.2969H25.3828C26.2898 51.2969 27.026 52.033 27.026 52.94C27.026 53.8503 26.2898 54.5831 25.3828 54.5831Z" fill="white"/>
</svg>