<svg xmlns="http://www.w3.org/2000/svg" width="34" height="34" viewBox="0 0 34 34" fill="none">
    <g clip-path="url(#clip0_593_9530)">
        <circle cx="17" cy="17" r="17" fill="#7A7A7A"/>
        <path d="M17 8.8016C19.67 8.8016 19.9864 8.8116 21.0408 8.86C22.0156 8.9044 22.5452 9.0672 22.8976 9.2044C23.3644 9.3856 23.6976 9.6024 24.0476 9.9524C24.3976 10.3024 24.6144 10.6356 24.7956 11.1024C24.9324 11.4548 25.0956 11.9844 25.14 12.9592C25.188 14.0136 25.1984 14.33 25.1984 17C25.1984 19.67 25.1884 19.9864 25.14 21.0408C25.0956 22.0156 24.9328 22.5452 24.7956 22.8976C24.6144 23.3644 24.3976 23.6976 24.0476 24.0476C23.6976 24.3976 23.3644 24.6144 22.8976 24.7956C22.5452 24.9324 22.0156 25.0956 21.0408 25.14C19.9864 25.188 19.6704 25.1984 17 25.1984C14.3296 25.1984 14.0136 25.1884 12.9592 25.14C11.9844 25.0956 11.4548 24.9328 11.1024 24.7956C10.6356 24.614 10.3024 24.3976 9.9524 24.0476C9.6024 23.6976 9.3856 23.3644 9.2044 22.8976C9.0676 22.5452 8.9044 22.0156 8.86 21.0408C8.812 19.9864 8.8016 19.67 8.8016 17C8.8016 14.33 8.8116 14.0136 8.86 12.9592C8.9044 11.9844 9.0672 11.4548 9.2044 11.1024C9.3856 10.6356 9.6024 10.3024 9.9524 9.9524C10.3024 9.6024 10.6356 9.3856 11.1024 9.2044C11.4548 9.0676 11.9844 8.9044 12.9592 8.86C14.0136 8.812 14.33 8.8016 17 8.8016ZM17 7C14.284 7 13.9436 7.0116 12.8772 7.06C11.8128 7.1084 11.086 7.2776 10.4496 7.5248C9.792 7.7804 9.2344 8.1224 8.6784 8.6784C8.1224 9.2344 7.7804 9.792 7.5248 10.4496C7.2776 11.0856 7.1084 11.8128 7.06 12.8772C7.0116 13.9436 7 14.284 7 17C7 19.716 7.0116 20.0564 7.06 21.1228C7.1084 22.1872 7.2776 22.914 7.5248 23.5504C7.7804 24.208 8.1224 24.7656 8.6784 25.3216C9.2344 25.8776 9.792 26.2196 10.4496 26.4752C11.0856 26.7224 11.8128 26.8916 12.8772 26.94C13.9436 26.9888 14.2844 27 17 27C19.716 27 20.0564 26.9884 21.1228 26.94C22.1872 26.8916 22.914 26.7224 23.5504 26.4752C24.208 26.2196 24.7656 25.8776 25.3216 25.3216C25.8776 24.7656 26.2196 24.208 26.4752 23.5504C26.7224 22.9144 26.8916 22.1872 26.94 21.1228C26.9888 20.056 27 19.7156 27 17C27 14.284 26.9884 13.9436 26.94 12.8772C26.8916 11.8128 26.7224 11.086 26.4752 10.4496C26.2196 9.792 25.8776 9.2344 25.3216 8.6784C24.7656 8.1224 24.208 7.7804 23.5504 7.5248C22.9144 7.2776 22.1872 7.1084 21.1228 7.06C20.0564 7.0116 19.716 7 17 7Z" fill="#454545"/>
        <path d="M17 11.8648C14.164 11.8648 11.8648 14.164 11.8648 17C11.8648 19.836 14.164 22.1352 17 22.1352C19.836 22.1352 22.1352 19.836 22.1352 17C22.1352 14.164 19.836 11.8648 17 11.8648ZM17 20.3332C15.1592 20.3332 13.6668 18.8408 13.6668 17C13.6668 15.1592 15.1592 13.6668 17 13.6668C18.8408 13.6668 20.3332 15.1592 20.3332 17C20.3332 18.8408 18.8408 20.3332 17 20.3332Z" fill="#454545"/>
        <path d="M22.338 12.862C23.0007 12.862 23.538 12.3247 23.538 11.662C23.538 10.9993 23.0007 10.462 22.338 10.462C21.6753 10.462 21.138 10.9993 21.138 11.662C21.138 12.3247 21.6753 12.862 22.338 12.862Z" fill="#454545"/>
    </g>
    <defs>
        <clipPath id="clip0_593_9530">
            <rect width="34" height="34" fill="white"/>
        </clipPath>
    </defs>
</svg>